<?xml version="1.0" encoding="UTF-8" standalone="no"?> <svg xmlns="http://www.w3.org/2000/svg" viewBox="0 0 512 512">
  <g>
    <g>
      <path d="M255.71,16.37a160,160,0,0,0-160,160.01c0,88.36,160,320,160,320s160-231.64,160-320A160.009,160.009,0,0,0,255.71,16.37Zm0,280.01a120,120,0,1,1,120-120A120,120,0,0,1,255.71,296.38Z" fill="#ff5023"/>
      <rect x="215.708" y="168.375" width="80" height="64" fill="#e0e0e2"/>
      <polygon points="311.708 168.375 199.708 168.375 255.708 120.375 311.708 168.375" fill="#ff5023"/>
      <rect x="239.708" y="192.375" width="32" height="40" fill="#78b9eb"/>
    </g>
    <g>
      <path d="M256,48A128,128,0,1,0,384,176,128.144,128.144,0,0,0,256,48Zm0,240A112,112,0,1,1,368,176,112.123,112.123,0,0,1,256,288Z"/>
      <path d="M256,8C163.36,8,88,83.36,88,176c0,89.83,154.83,315,161.42,324.55a8,8,0,0,0,13.16,0C269.17,491,424,265.83,424,176,424,83.36,348.64,8,256,8Zm0,473.74C226.02,437.1,104,250.82,104,176c0-83.81,68.19-152,152-152S408,92.19,408,176C408,250.82,285.98,437.1,256,481.74Z"/>
      <path d="M312,224h-8V176h8a8,8,0,0,0,5.21-14.07l-56-48a8.005,8.005,0,0,0-10.42,0l-56,48A8,8,0,0,0,200,176h8v48h-8a8,8,0,0,0,0,16H312a8,8,0,0,0,0-16Zm-48,0H248V200h16Zm24,0h-8V192a8,8,0,0,0-8-8H240a8,8,0,0,0-8,8v32h-8V176h64Zm-66.37-64L256,130.54,290.37,160Z"/>
    </g>
  </g>
</svg>
